<svg width="800" height="800" viewBox="0 0 800 800" fill="none" xmlns="http://www.w3.org/2000/svg">
  <rect width="800" height="800" fill="none"/>
  <g stroke="#E63946" stroke-width="3" opacity="0.12">
    <!-- Cloud 1 -->
    <path d="M650 700c-40-40-120-40-160 0s27 60 80 40c32-12 44-41 20-60"/>
    <!-- Cloud 2 -->
    <path d="M550 610c-20-20-60-20-80 0s10 40 40 30c15-6 21-22 8-30"/>
    <!-- Cloud 3 -->
    <path d="M720 650c-20-20-60-20-80 0s10 40 40 30c15-6 21-22 8-30"/>
    <!-- Cloud 4 -->
    <path d="M580 750c20-10 70-10 90 10s-10 22-30 16c-12-4-20-16-10-26"/>
  </g>
</svg>